<svg width="16" height="16" viewBox="0 0 16 16" fill="none" xmlns="http://www.w3.org/2000/svg">
<path d="M13.0927 6.72237C13.653 6.63623 14.1602 6.34168 14.5126 5.89768C14.8651 5.45368 15.0369 4.89297 14.9936 4.32774C14.9504 3.7625 14.6953 3.23444 14.2795 2.84919C13.8636 2.46395 13.3176 2.24995 12.7507 2.25H12V1.25C11.9998 1.05116 11.9207 0.860542 11.7801 0.719944C11.6395 0.579345 11.4488 0.500248 11.25 0.5H2.25C2.05116 0.500248 1.86054 0.579345 1.71994 0.719944C1.57935 0.860542 1.50025 1.05116 1.5 1.25V4.5C1.50025 4.69884 1.57935 4.88946 1.71994 5.03006C1.86054 5.17065 2.05116 5.24975 2.25 5.25H11.25C11.4488 5.24975 11.6395 5.17065 11.7801 5.03006C11.9207 4.88946 11.9998 4.69884 12 4.5V3.25H12.7507C13.0656 3.25001 13.3688 3.36888 13.5997 3.58285C13.8307 3.79682 13.9723 4.0901 13.9963 4.40402C14.0203 4.71794 13.9249 5.02935 13.7292 5.27595C13.5335 5.52255 13.2519 5.68615 12.9407 5.73403L7.5 6.57103V8.75H5.75V15.5H10.25V8.75H8.5V7.42897L13.0927 6.72237ZM11 4.25H2.5V1.5H11V4.25ZM9.25 9.75V14.5H6.75V9.75H9.25Z" fill="black"/>
</svg>
