<svg width="18" height="19" viewBox="0 0 18 19" fill="none" xmlns="http://www.w3.org/2000/svg">
<path d="M15.2586 9.41373C15.2862 9.62853 15.3 9.85743 15.3 10.1004C15.3 11.4819 14.8815 12.4107 14.481 12.9876C14.3228 13.2167 14.1386 13.4266 13.932 13.6131C13.8641 13.6731 13.7932 13.7295 13.7196 13.7823L13.7115 13.7877C13.6468 13.8282 13.5935 13.8844 13.5565 13.9512C13.5195 14.0179 13.5 14.093 13.5 14.1693V15.6732C13.5 15.7926 13.4526 15.907 13.3682 15.9914C13.2839 16.0758 13.1694 16.1232 13.05 16.1232H11.8044C11.7768 16.1232 11.7502 16.1122 11.7306 16.0927C11.711 16.0731 11.7 16.0465 11.7 16.0188C11.7 15.4635 11.25 15.0135 10.6956 15.0135H9.10445C8.55005 15.0135 8.10005 15.4635 8.10005 16.0188C8.10005 16.0465 8.08905 16.0731 8.06947 16.0927C8.04989 16.1122 8.02334 16.1232 7.99565 16.1232H6.75005C6.6307 16.1232 6.51624 16.0758 6.43185 15.9914C6.34746 15.907 6.30005 15.7926 6.30005 15.6732V14.9082C6.29979 14.814 6.26994 14.7222 6.21471 14.6458C6.15949 14.5694 6.08167 14.5123 5.99225 14.4825L5.95625 14.4654C5.8847 14.4305 5.81554 14.3908 5.74925 14.3466C5.55125 14.2188 5.23895 13.9812 4.82045 13.5573C4.44318 13.1686 4.1392 12.7149 3.92315 12.2181C3.75755 11.8383 3.41105 11.5044 2.94755 11.4261C2.87855 11.4145 2.81589 11.3788 2.77061 11.3255C2.72533 11.2721 2.70034 11.2045 2.70005 11.1345V9.77823C2.70005 9.7165 2.72193 9.65676 2.76181 9.60964C2.80168 9.56251 2.85697 9.53105 2.91785 9.52083C3.41285 9.43713 3.76385 9.05823 3.90065 8.64063C4.01765 8.28243 4.22825 7.81263 4.57745 7.45893C4.87171 7.16503 5.20121 6.90868 5.55845 6.69573C5.70171 6.61005 5.84887 6.53107 5.99945 6.45903L6.02285 6.44823L6.02735 6.44643C6.10849 6.41165 6.17761 6.35376 6.2261 6.27999C6.27459 6.20622 6.3003 6.11981 6.30005 6.03153V4.14423C6.52775 4.34223 6.79325 4.55643 7.07945 4.74723C7.47005 5.01003 7.93535 5.25663 8.41325 5.34573C8.52365 5.04513 8.66765 4.76073 8.84525 4.49253L8.68055 4.47543C8.36105 4.44303 7.97675 4.26573 7.57985 4.00023C7.22259 3.75437 6.88688 3.47858 6.57635 3.17583C6.47927 3.08305 6.35733 3.02048 6.22536 2.99571C6.09338 2.97095 5.95705 2.98506 5.83295 3.03633C5.70571 3.08654 5.59645 3.17376 5.51928 3.2867C5.44211 3.39965 5.40058 3.53314 5.40005 3.66993V5.75253C4.8623 6.03683 4.36923 6.39859 3.93665 6.82623C3.44795 7.32123 3.18245 7.94223 3.04565 8.36073C2.99165 8.52093 2.87465 8.61543 2.76845 8.63343C2.4979 8.67894 2.25221 8.81879 2.07494 9.02818C1.89768 9.23758 1.80029 9.50298 1.80005 9.77733V11.1336C1.79991 11.4166 1.89999 11.6904 2.08254 11.9065C2.26508 12.1227 2.51829 12.2672 2.79725 12.3144C2.90975 12.3324 3.03125 12.4242 3.09785 12.5781C3.35821 13.176 3.72473 13.7219 4.17965 14.1891C4.63775 14.6535 4.99955 14.9334 5.25875 15.1017C5.31035 15.1347 5.35745 15.1638 5.40005 15.189V15.6732C5.40005 15.8505 5.43497 16.0261 5.50281 16.1898C5.57066 16.3536 5.6701 16.5025 5.79545 16.6278C5.92081 16.7532 6.06964 16.8526 6.23343 16.9205C6.39722 16.9883 6.57276 17.0232 6.75005 17.0232H7.99565C8.55005 17.0232 9.00005 16.5732 9.00005 16.0188C9.00005 15.9603 9.04685 15.9135 9.10445 15.9135H10.6956C10.7532 15.9135 10.8 15.9603 10.8 16.0188C10.8 16.5732 11.25 17.0232 11.8044 17.0232H13.05C13.4081 17.0232 13.7515 16.881 14.0046 16.6278C14.2578 16.3746 14.4 16.0313 14.4 15.6732V14.3961C14.7122 14.1363 14.9877 13.8353 15.219 13.5015C15.7185 12.7842 16.2 11.6781 16.2 10.1004C16.2 9.44703 16.1091 8.86203 15.9363 8.33913C15.7681 8.73081 15.5391 9.09347 15.2577 9.41373M15.1209 5.53203C15.3911 6.18466 15.434 6.90915 15.2429 7.58913C15.0518 8.2691 14.6376 8.86511 14.067 9.28143C13.68 9.56223 13.1697 9.54243 12.7287 9.35973L9.99275 8.22663C9.55175 8.04393 9.17645 7.69743 9.10175 7.22583C8.98529 6.46579 9.15084 5.68941 9.5672 5.04299C9.98356 4.39657 10.622 3.92476 11.3621 3.71648C12.1023 3.5082 12.8931 3.57783 13.5854 3.91226C14.2778 4.24668 14.824 4.82279 15.1209 5.53203ZM13.5369 8.55423C13.8603 8.31903 14.1151 8.0019 14.2752 7.6355C14.4353 7.2691 14.4949 6.86666 14.4478 6.46959C14.4007 6.07253 14.2486 5.69519 14.0072 5.37642C13.7659 5.05764 13.4439 4.80895 13.0745 4.65593C12.7051 4.50292 12.3015 4.45111 11.9055 4.50584C11.5094 4.56057 11.135 4.71986 10.821 4.96732C10.5069 5.21478 10.2644 5.54146 10.1185 5.91375C9.97266 6.28603 9.92861 6.69047 9.99095 7.08543C10.0025 7.13609 10.0284 7.18234 10.0656 7.21863C10.1232 7.27983 10.215 7.34463 10.3374 7.39503L13.0734 8.52903C13.1736 8.57201 13.2813 8.59436 13.3902 8.59473C13.4423 8.59575 13.4927 8.58168 13.5369 8.55423ZM6.07505 9.37323C6.25407 9.37323 6.42576 9.30211 6.55235 9.17553C6.67893 9.04894 6.75005 8.87725 6.75005 8.69823C6.75005 8.51921 6.67893 8.34752 6.55235 8.22093C6.42576 8.09434 6.25407 8.02323 6.07505 8.02323C5.89603 8.02323 5.72434 8.09434 5.59775 8.22093C5.47116 8.34752 5.40005 8.51921 5.40005 8.69823C5.40005 8.87725 5.47116 9.04894 5.59775 9.17553C5.72434 9.30211 5.89603 9.37323 6.07505 9.37323Z" fill="white"/>
</svg>
