<svg width="18" height="19" viewBox="0 0 18 19" fill="none" xmlns="http://www.w3.org/2000/svg">
<path d="M14.4885 10.8115H11.5823C11.197 10.8111 10.8273 10.9635 10.5543 11.2353C10.2813 11.5071 10.1271 11.876 10.1258 12.2613V15.1675C10.1256 15.3589 10.1631 15.5483 10.2362 15.7251C10.3093 15.9019 10.4166 16.0626 10.5519 16.1979C10.6872 16.3332 10.8478 16.4404 11.0246 16.5136C11.2014 16.5867 11.3909 16.6242 11.5823 16.624H14.4885C14.8736 16.6224 15.2424 16.4682 15.514 16.1952C15.7856 15.9222 15.9379 15.5526 15.9375 15.1675V12.2613C15.9377 12.0709 15.9004 11.8824 15.8276 11.7065C15.7549 11.5306 15.6481 11.3708 15.5135 11.2362C15.3789 11.1016 15.2191 10.9949 15.0432 10.9222C14.8674 10.8494 14.6788 10.8121 14.4885 10.8123M6.41775 10.8115H3.5115C3.12645 10.8137 2.7579 10.9682 2.4864 11.2412C2.21489 11.5143 2.06249 11.8837 2.0625 12.2688V15.175C2.0623 15.3654 2.09965 15.5539 2.1724 15.7298C2.24515 15.9057 2.35187 16.0655 2.48646 16.2001C2.62105 16.3347 2.78087 16.4414 2.95676 16.5141C3.13265 16.5869 3.32116 16.6242 3.5115 16.624H6.41775C6.80286 16.6244 7.17243 16.4721 7.44544 16.2005C7.71846 15.9289 7.87266 15.5601 7.87425 15.175V12.2688C7.87445 12.0774 7.83691 11.888 7.76378 11.7112C7.69066 11.5344 7.58338 11.3737 7.44809 11.2384C7.3128 11.1031 7.15216 10.9959 6.97536 10.9227C6.79856 10.8496 6.60908 10.8121 6.41775 10.8123M6.41775 2.74902H3.5115C3.32116 2.74883 3.13265 2.78617 2.95676 2.85892C2.78087 2.93167 2.62105 3.03839 2.48646 3.17299C2.35187 3.30758 2.24515 3.46739 2.1724 3.64328C2.09965 3.81917 2.0623 4.00768 2.0625 4.19802V7.10427C2.0621 7.48939 2.2144 7.85895 2.48601 8.13197C2.75762 8.40499 3.12639 8.55919 3.5115 8.56077H6.41775C6.60908 8.56097 6.79856 8.52343 6.97536 8.45031C7.15216 8.37718 7.3128 8.2699 7.44809 8.13462C7.58338 7.99933 7.69066 7.83869 7.76378 7.66189C7.83691 7.48509 7.87445 7.2956 7.87425 7.10427V4.19802C7.87266 3.81291 7.71846 3.44414 7.44544 3.17253C7.17243 2.90092 6.80286 2.74862 6.41775 2.74902ZM14.4885 2.74902H11.5823C11.1971 2.74862 10.8276 2.90092 10.5546 3.17253C10.2815 3.44414 10.1273 3.81291 10.1258 4.19802V7.10427C10.1259 7.4905 10.2795 7.86085 10.5526 8.13396C10.8257 8.40706 11.196 8.56058 11.5823 8.56077H14.4885C14.8736 8.55919 15.2424 8.40499 15.514 8.13197C15.7856 7.85895 15.9379 7.48939 15.9375 7.10427V4.19802C15.9377 4.00768 15.9004 3.81917 15.8276 3.64328C15.7549 3.46739 15.6481 3.30758 15.5135 3.17299C15.3789 3.03839 15.2191 2.93167 15.0432 2.85892C14.8674 2.78617 14.6788 2.74883 14.4885 2.74902Z" stroke="white" stroke-width="1.5" stroke-linecap="round" stroke-linejoin="round"/>
</svg>
