<svg width="18" height="19" viewBox="0 0 18 19" fill="none" xmlns="http://www.w3.org/2000/svg">
<path d="M15.129 5.56248H13.7332L10.3087 8.98549C10.4267 9.28608 10.4375 9.61812 10.3395 9.92577C10.2414 10.2334 10.0404 10.4979 9.7702 10.6748C9.50004 10.8516 9.17722 10.9301 8.85602 10.8969C8.53482 10.8638 8.23484 10.721 8.00651 10.4927C7.77818 10.2644 7.63544 9.96439 7.60228 9.6432C7.56912 9.322 7.64757 8.99918 7.82444 8.72902C8.00131 8.45886 8.2658 8.25785 8.57345 8.15977C8.8811 8.06169 9.21314 8.07254 9.51373 8.19049L12.9375 4.76674V3.37098C12.9376 3.18422 13.0117 3.00511 13.1437 2.87298L14.4412 1.57548C14.4652 1.55132 14.4954 1.53415 14.5284 1.52583C14.5615 1.5175 14.5961 1.51833 14.6287 1.52823C14.6955 1.54773 14.745 1.60323 14.7585 1.67148L15.1035 3.39723L16.8285 3.74223C16.896 3.75573 16.9515 3.80523 16.971 3.87198C16.9808 3.90441 16.9817 3.9389 16.9735 3.97178C16.9653 4.00466 16.9484 4.03471 16.9245 4.05873L15.6262 5.35623C15.4943 5.48805 15.3155 5.56221 15.129 5.56248Z" fill="white"/>
<path d="M1.96875 9.5C1.96875 11.3648 2.70954 13.1532 4.02816 14.4718C5.34677 15.7905 7.1352 16.5313 9 16.5313C9.92336 16.5313 10.8377 16.3494 11.6907 15.996C12.5438 15.6427 13.3189 15.1248 13.9718 14.4718C14.6248 13.8189 15.1427 13.0438 15.496 12.1907C15.8494 11.3377 16.0312 10.4234 16.0312 9.5C16.0312 8.8265 15.9368 8.1755 15.7605 7.55975C15.7255 7.41837 15.7466 7.26891 15.8196 7.14283C15.8925 7.01674 16.0115 6.92386 16.1515 6.88373C16.2915 6.8436 16.4417 6.85935 16.5703 6.92766C16.6989 6.99598 16.7961 7.11153 16.8412 7.25C17.0467 7.9655 17.1562 8.72 17.1562 9.5C17.1562 14.0045 13.5045 17.6563 9 17.6563C4.4955 17.6563 0.84375 14.0045 0.84375 9.5C0.84375 4.9955 4.4955 1.34375 9 1.34375C9.76125 1.343 10.518 1.44875 11.25 1.658C11.3214 1.67802 11.3881 1.71195 11.4463 1.75784C11.5045 1.80373 11.5531 1.86068 11.5892 1.9254C11.6254 1.99012 11.6483 2.06135 11.6569 2.13499C11.6654 2.20862 11.6592 2.28321 11.6388 2.35448C11.6184 2.42574 11.5841 2.49226 11.5379 2.55023C11.4917 2.60819 11.4345 2.65645 11.3696 2.69223C11.3047 2.72801 11.2333 2.75061 11.1596 2.75872C11.086 2.76683 11.0114 2.7603 10.9403 2.7395C10.3093 2.5594 9.6562 2.46827 9 2.46875C7.1352 2.46875 5.34677 3.20954 4.02816 4.52816C2.70954 5.84677 1.96875 7.6352 1.96875 9.5Z" fill="white"/>
<path d="M5.3438 9.5C5.34589 9.99674 5.44921 10.4878 5.64744 10.9433C5.84566 11.3988 6.13465 11.8091 6.49674 12.1492C6.85883 12.4892 7.28643 12.7519 7.75344 12.9212C8.22045 13.0905 8.71706 13.1629 9.21296 13.1338C9.70886 13.1048 10.1936 12.975 10.6377 12.7524C11.0817 12.5297 11.4758 12.2189 11.7957 11.8389C12.1156 11.4589 12.3547 11.0177 12.4984 10.5421C12.6422 10.0666 12.6874 9.56684 12.6315 9.07325C12.6158 8.97328 12.6274 8.87092 12.6651 8.777C12.7028 8.68308 12.7652 8.60111 12.8456 8.53976C12.9261 8.47842 13.0217 8.43999 13.1223 8.42854C13.2228 8.4171 13.3246 8.43306 13.4168 8.47475C13.6051 8.55875 13.7318 8.738 13.7483 8.9435C13.8648 9.92993 13.671 10.9281 13.194 11.7994C12.7169 12.6706 11.9803 13.3716 11.0865 13.8049C10.1927 14.2382 9.18615 14.3822 8.20669 14.2171C7.22724 14.0519 6.32357 13.5857 5.6213 12.8832C4.91922 12.1816 4.4529 11.2788 4.287 10.3002C4.12109 9.32151 4.26384 8.31549 4.69544 7.42163C5.12704 6.52776 5.8261 5.79036 6.69567 5.31168C7.56523 4.83301 8.5622 4.63679 9.5483 4.75025C9.62285 4.75716 9.69526 4.77889 9.7613 4.81416C9.82734 4.84942 9.88568 4.89752 9.93289 4.95562C9.9801 5.01373 10.0152 5.08067 10.0362 5.15253C10.0572 5.22439 10.0637 5.29972 10.0552 5.3741C10.0467 5.44849 10.0235 5.52043 9.98682 5.58571C9.95017 5.65099 9.90085 5.7083 9.84177 5.75428C9.78268 5.80025 9.71501 5.83397 9.64272 5.85346C9.57044 5.87294 9.49499 5.8778 9.4208 5.86775C8.90857 5.80853 8.38961 5.8583 7.89797 6.0138C7.40634 6.1693 6.95314 6.42701 6.56814 6.77002C6.18313 7.11303 5.87501 7.53358 5.66401 8.00407C5.453 8.47456 5.34388 8.98435 5.3438 9.5Z" fill="white"/>
</svg>
